<?xml version="1.0"?>
<svg width="640" height="480.00000000000006" xmlns="http://www.w3.org/2000/svg" xmlns:svg="http://www.w3.org/2000/svg">
 <!-- Created with SVG-edit - https://github.com/SVG-Edit/svgedit-->
 <g class="layer">
  <title>Layer 1</title>
  <path d="m346.36,413.01c-72,0 -143.87,0 -215.74,0c0,-115.54 0,-231.08 0,-346.62c126.38,0 252.77,0 379.15,0c0,115.54 0,231.08 0,346.62c-54.43,0 -108.86,0 -163.41,0m-43.17,-166.55c0,0 -0.03,0.01 -0.11,-0.19c-4.51,-3.5 -9.38,-5.14 -14.54,-4.77c-5.49,0.39 -10.77,2.31 -15.95,4.78c-6.13,2.92 -12.22,6.11 -18.66,7.46c-4.41,0.93 -8.87,1.37 -13.39,2.04c3.64,0.44 7.25,1.15 10.88,1.27c7.44,0.24 14.73,-1.32 21.92,-3.94c5.47,-2 10.93,-4.06 16.45,-5.75c4.39,-1.35 8.89,-1.23 13.4,-0.89m-81.51,-7.89c-0.04,0.02 -0.09,0.03 -0.13,0.05c0.05,0.02 0.1,0.05 0.09,0.31c1.57,4.41 4.32,6.99 7.49,8.83c4.72,2.75 9.7,3.27 14.75,2.99c7.87,-0.44 15.42,-3.1 22.86,-6.48c5.92,-2.69 11.83,-5.49 18.04,-6.79c5.67,-1.19 11.36,-1.65 17.04,-0.14c3.21,0.85 6.22,2.37 9.02,5.32c-0.73,-5.22 -3.12,-8.17 -6.12,-10.33c-4.3,-3.1 -8.98,-3.87 -13.75,-3.89c-7.46,-0.03 -14.68,2.08 -21.8,4.99c-5.9,2.41 -11.78,4.98 -17.73,7.11c-5.74,2.05 -11.63,2.92 -17.59,2.55c-4.28,-0.26 -8.34,-1.66 -12.16,-4.53m50.08,-11.38c3.89,-0.91 7.77,-1.88 11.66,-2.69c0.89,-0.19 1.16,-0.56 1.15,-1.77c-0.03,-6.43 0,-12.86 0.01,-19.29c0,-0.59 0.04,-1.19 0.07,-1.89c7.23,0 14.33,0 21.47,0c0,-6.11 0,-12.1 0,-18.25c-7.23,0 -14.33,0 -21.47,0c0,-5.83 0,-11.49 0,-17.37c8.07,0 16.06,0 24.41,0c0,-6.24 0,-12.26 0.05,-18.49c0.12,-1.5 -0.72,-0.93 -1.17,-0.93c-12.29,-0.03 -24.58,-0.02 -36.88,-0.01c-0.39,0 -0.78,0.05 -1.14,0.07c0,27.17 0,54.14 0,81.28c0.61,-0.25 1.12,-0.46 1.82,-0.66m159,-24.33c-1.47,-3.59 -3.76,-5.17 -6.72,-5.17c-12.66,0 -25.33,-0.02 -37.99,-0.03c-1.93,0 -3.87,-0.07 -5.79,0.07c-3.79,0.28 -6.77,4.49 -6.78,9.59c-0.02,19.73 -0.02,39.46 0.01,59.2c0.01,5.33 3.19,9.71 7.08,9.72c14.59,0.04 29.19,0.05 43.78,-0.01c3.11,-0.01 5.38,-2.13 6.75,-6.29c0.21,-1.43 0.59,-2.85 0.59,-4.27c0.04,-19.32 0.05,-38.64 -0.01,-57.95c0,-1.54 -0.58,-3.08 -0.93,-4.85m-207.37,24.21c1.23,1.3 2.37,2.82 3.71,3.88c5.19,4.14 10.81,4.77 16.59,3.21c5.66,-1.53 10.05,-5.67 12.96,-12.59c2.22,-5.29 2.94,-11.09 2.95,-17.07c0.03,-18.67 0.01,-37.34 0.02,-56.01c0,-0.6 0,-1.21 0,-1.85c-4.94,0 -9.74,0 -14.6,0c0,0.62 0,1.12 0,1.62c0,17.54 0.02,35.08 0,52.63c0,2.36 -0.13,4.74 -0.39,7.07c-0.75,6.76 -4.11,10.31 -8.77,9.39c-2.43,-0.48 -4.22,-2.36 -5.68,-5.05c-3.29,2.88 -6.53,5.72 -10.04,8.8c1.1,2.05 2.12,3.93 3.25,5.98m70.97,59.53c0.16,-1.77 0.15,-3.61 0.51,-5.3c0.34,-1.55 1.42,-2.12 2.59,-1.96c1.18,0.17 1.87,1.15 2,2.74c0.12,1.34 0.15,2.69 0.16,4.04c0.02,2.85 0.01,5.7 0.01,8.47c1.4,0 2.61,0 3.87,0c0,-3.41 -0.03,-6.68 0.02,-9.94c0.02,-1.1 0.13,-2.26 0.41,-3.29c0.45,-1.66 1.53,-2.13 2.72,-2.01c1.13,0.11 1.78,1.05 1.98,2.56c0.09,0.71 0.17,1.45 0.18,2.17c0.02,3.49 0.01,6.98 0.01,10.51c1.36,0 2.62,0 3.93,0c0,-1.92 0.02,-3.72 0,-5.52c-0.04,-2.93 0.07,-5.88 -0.2,-8.78c-0.36,-3.94 -2.11,-5.76 -5,-5.74c-1.99,0.01 -3.56,1.11 -4.7,3.48c-0.92,-2.51 -2.36,-3.5 -4.25,-3.51c-1.84,-0.01 -3.33,0.92 -4.44,3.21c-0.16,-1.09 -0.28,-1.93 -0.38,-2.63c-1.24,0 -2.33,0 -3.31,0c0,6.6 0,13.06 0,19.52c1.36,0 2.58,0 3.91,0c0,-2.63 0,-5.15 0,-8.02m-52.78,-11.43c-2.64,-1.22 -5.04,-0.94 -7.08,2.5c0,-4.04 0,-7.68 0,-11.44c-1.31,0.2 -2.52,0.39 -3.79,0.58c0,9.31 0,18.52 0,27.78c1.31,0 2.56,0 3.86,0c0,-3.33 -0.04,-6.54 0.02,-9.75c0.02,-1.1 0.18,-2.25 0.47,-3.27c0.45,-1.59 1.7,-2.41 3.03,-2.24c1.3,0.17 1.99,1.22 2.22,2.89c0.11,0.77 0.16,1.56 0.17,2.35c0.02,3.32 0.01,6.64 0.01,10.06c1.33,0 2.59,0 3.9,0c0,-4.59 0.09,-9.09 -0.03,-13.59c-0.07,-2.46 -0.86,-4.58 -2.77,-5.86m22.27,36.46c-3.05,-0.53 -5.52,1.14 -6.69,4.51c-1.42,4.12 -0.89,9.44 1.25,12.3c1.23,1.66 2.74,2.43 4.47,2.42c1.67,-0.01 3.21,-0.56 4.37,-2.75c0.08,1.07 0.12,1.66 0.17,2.23c1.17,0 2.26,0 3.19,0c0,-9.03 0,-17.91 0,-26.91c-1.29,0.23 -2.41,0.43 -3.68,0.66c0,3.32 0,6.53 0,9.53c-1,-0.67 -1.94,-1.3 -3.08,-1.99m-16.73,-28.45c-0.26,5.45 0.97,8.82 3.95,10.83c3.07,2.07 7.69,1.4 10.14,-1.5c-0.51,-1.18 -1.02,-2.37 -1.53,-3.56c-4.25,3.24 -8.09,2.07 -8.5,-2.65c3.61,0 7.21,0 10.78,0c0.75,-5.34 -1.42,-10.2 -5.08,-11.4c-4.3,-1.41 -8.76,1.27 -9.77,8.28m27.94,10.47c2.78,2.47 5.32,2.07 8.01,-1.32c0.1,0.78 0.2,1.53 0.29,2.25c1.19,0 2.3,0 3.35,0c0,-6.61 0,-13.07 0,-19.51c-1.32,0 -2.53,0 -3.82,0c0,3.32 0.1,6.53 -0.04,9.73c-0.06,1.44 -0.43,2.99 -0.98,4.23c-0.62,1.43 -1.81,1.68 -2.97,1.3c-1.1,-0.36 -1.61,-1.47 -1.74,-2.94c-0.06,-0.72 -0.1,-1.46 -0.1,-2.19c-0.01,-3.37 0,-6.74 0,-10.11c-1.36,0 -2.61,0 -3.83,0c0,4.46 -0.04,8.79 0.01,13.12c0.02,2.03 0.54,3.86 1.81,5.43m-76.06,30.19c0,-1.27 0,-2.53 0,-3.92c2.48,0 4.77,0 7.08,0c0,-1.5 0,-2.87 0,-4.44c-2.4,0 -4.71,0 -7.01,0c0,-2.33 0,-4.45 0,-6.7c2.63,0 5.2,0 7.79,0c0,-1.62 0,-3.11 0,-4.65c-3.92,0 -7.77,0 -11.69,0c0,8.79 0,17.49 0,26.24c1.3,0 2.54,0 3.83,0c0,-2.14 0,-4.16 0,-6.52m120.22,-7.46c-2.16,-4.88 -6.58,-6.38 -10.32,-3.51c-4,3.08 -4.47,11.95 -0.84,15.79c2.72,2.88 6.82,2.99 9.43,0.25c2.5,-2.62 3.24,-7.71 1.72,-12.53m-100.28,-3.7c-3.42,-2.25 -7.54,-1.2 -9.53,2.42c-2.31,4.21 -1.63,10.98 1.4,13.92c3.28,3.19 8.27,2.21 10.38,-2.03c2.37,-4.75 1.42,-11.18 -2.26,-14.31m58.96,18.16c1.78,0.07 3.37,-0.58 4.65,-2.56c0.11,0.86 0.18,1.45 0.26,2.1c1.07,0 2.07,0 3.01,0c0,-3.92 0.02,-7.74 0,-11.57c-0.02,-2.95 -0.88,-5.37 -2.93,-6.49c-3.13,-1.72 -6.08,-0.78 -8.96,1.51c0.53,1.19 0.99,2.23 1.48,3.32c1.46,-1.31 2.96,-1.99 4.62,-1.69c1.6,0.29 2.22,1.41 2.06,3.49c-1.9,0.22 -3.8,0.18 -5.62,0.71c-2.52,0.73 -3.78,3.96 -3.03,7.08c0.68,2.81 2.33,3.74 4.47,4.1m-33.14,-10.65c0.19,-0.86 0.27,-1.79 0.58,-2.55c0.55,-1.36 1.93,-2.03 3,-1.65c1.21,0.44 1.94,1.85 1.95,4.04c0.03,3.43 0.01,6.85 0.01,10.32c1.23,0 2.35,0 3.51,0c0,-4.38 0.13,-8.67 -0.04,-12.93c-0.15,-3.86 -2,-5.94 -4.83,-5.97c-1.73,-0.02 -3.14,0.93 -4.35,2.85c-0.14,-0.92 -0.24,-1.62 -0.34,-2.28c-1.12,0 -2.17,0 -3.13,0c0,6.19 0,12.25 0,18.36c1.27,0 2.4,0 3.62,0c0,-3.34 0,-6.61 0,-10.19m-15,10.69c1.77,0.03 3.27,-0.77 4.44,-2.93c0.11,0.97 0.19,1.72 0.27,2.38c1.12,0 2.12,0 3.06,0c0,-6.22 0,-12.32 0,-18.39c-1.21,0 -2.31,0 -3.51,0c0,3.12 0.04,6.14 -0.02,9.17c-0.02,1.1 -0.18,2.25 -0.47,3.27c-0.46,1.61 -1.65,2.35 -2.93,2.07c-1.27,-0.27 -1.84,-1.46 -1.93,-3.04c-0.1,-1.85 -0.06,-3.71 -0.07,-5.57c-0.01,-1.95 0,-3.89 0,-5.83c-1.31,0 -2.45,0 -3.52,0c0,4.43 -0.15,8.76 0.04,13.06c0.17,3.61 1.75,5.42 4.64,5.82m104.99,-16.16c-0.66,-1.8 -1.74,-2.81 -3.17,-3.13c-2.13,-0.48 -4.03,0.06 -5.46,2.79c-0.16,-0.99 -0.27,-1.69 -0.38,-2.39c-1.1,0 -2.14,0 -3.08,0c0,6.22 0,12.33 0,18.42c1.25,0 2.35,0 3.58,0c0,-0.62 0,-1.17 0,-1.72c0.01,-2.87 -0.02,-5.75 0.06,-8.62c0.07,-2.72 1.22,-4.25 2.97,-4.16c1.57,0.08 2.43,1.5 2.48,4.19c0.02,1.3 0,2.59 0,3.89c0,2.12 0,4.24 0,6.36c1.3,0 2.46,0 3.67,0c0,-3.56 0.06,-7 -0.03,-10.42c-0.04,-1.66 -0.38,-3.3 -0.65,-5.2m-112.63,-25.94c-0.59,0.46 -1.23,1.38 -1.75,1.27c-1.1,-0.24 -2.13,-1.03 -3.35,-1.68c-0.57,0.81 -1.34,1.89 -2.11,2.98c1.79,3.24 4.71,4.56 7.68,3.47c2.49,-0.92 3.83,-3.36 4.2,-7.69c0.05,-0.61 0.07,-1.24 0.07,-1.85c0.01,-5.52 0.02,-11.04 0.02,-16.57c0,-0.54 -0.04,-1.08 -0.06,-1.63c-1.43,0 -2.77,0 -4.16,0c0,6.08 0.02,12.05 -0.02,18.01c-0.01,1.15 -0.28,2.31 -0.52,3.7m71.09,18.61c0,-0.61 0,-1.12 -0.67,-0.87c-0.98,0.37 -1.98,0.61 -3.04,0.92c0,1.47 0,2.86 0,4.32c-0.67,0.08 -1.27,0.15 -1.89,0.22c0,1.33 0,2.59 0,3.86c0.68,0.07 1.27,0.13 1.95,0.2c0,3.13 -0.03,6.11 0.01,9.09c0.03,2.19 0.5,4.21 2.13,5.09c1.82,0.99 3.68,0.85 5.54,-0.28c-0.22,-1.25 -0.42,-2.41 -0.63,-3.58c-0.63,0.13 -1.11,0.28 -1.59,0.33c-1.1,0.1 -1.76,-0.61 -1.78,-2.13c-0.04,-2.81 -0.01,-5.62 -0.01,-8.63c1.21,0 2.34,0 3.46,0c0,-1.47 0,-2.72 0,-4.16c-1.2,0 -2.33,0 -3.48,0c0,-1.48 0,-2.77 -0.01,-4.38m-28.33,-37.38c0,6.31 0.14,12.63 -0.04,18.94c-0.16,5.72 3.46,7.05 6.33,5.63c-0.08,-1.32 -0.16,-2.65 -0.24,-3.96c-2.13,-0.33 -2.13,-0.33 -2.13,-3.21c0,-6.31 0,-12.63 0,-18.94c0,-0.7 0,-1.4 0,-2.21c-1.42,0.22 -2.63,0.4 -3.92,0.6c0,1.03 0,1.92 0,3.14m38.09,55.83c0,-4.61 0,-9.22 0,-13.85c-1.28,0 -2.4,0 -3.52,0c0,6.2 0,12.27 0,18.36c1.21,0 2.33,0 3.52,0c0,-1.47 0,-2.82 0,-4.51m0.25,-20.96c-0.57,-1.52 -1.49,-2 -2.67,-1.63c-1.01,0.32 -1.68,1.35 -1.55,2.63c0.11,1 0.68,2.23 1.3,2.71c0.53,0.41 1.53,0.15 2.15,-0.28c0.87,-0.6 1.15,-1.83 0.76,-3.43z" fill="#FEFEFE" id="svg_8" opacity="1"/>
  <path d="m499.14,77.69c2.31,0.67 0,35.59 0,54.02c-33.82,0 -66.2,0 -98.9,0c0,17.37 0,34.11 0,51.32c28.95,0 57.71,0 86.99,0c0,18.17 0,35.86 0,53.91c-28.92,0 -57.7,0 -86.99,0c-0.11,2.07 -0.28,3.83 -0.28,5.58c-0.06,19 -0.18,38 -0.06,57c0.03,3.58 -1.04,4.68 -4.65,5.23c-15.78,2.4 -31.51,5.26 -47.9,7.68c-3.65,-1.07 -5.28,-2.45 -5.28,-6.13c0.12,-75.29 0.12,-150.58 0.02,-225.86c0,-3.71 1.03,-4.89 4.79,-4.84c16.3,0.18 32.59,0.08 48.89,0.08c32.15,-0.01 64.3,-0.05 96.44,0.08c2.31,0.01 4.62,1.26 6.93,1.93z" fill="#278D83" id="svg_7" opacity="1"/>
  <path d="m151.79,312.1c-4.35,-5.82 -8.46,-11.37 -12.92,-17.42c14.23,-9.1 27.37,-17.49 40.68,-25.99c5.93,7.97 13.19,13.51 23.02,14.93c18.87,2.72 32.49,-7.77 35.52,-27.74c1.04,-6.89 1.56,-13.92 1.57,-20.89c0.11,-51.83 0.03,-103.66 0.01,-155.48c0,-1.49 0,-2.97 0,-4.79c19.69,0 39.11,0 59.13,0c0,1.91 0,3.7 -0.01,5.48c-0.01,55.16 0.06,110.32 -0.07,165.48c-0.05,17.69 -2.94,34.82 -11.95,50.44c-11.79,20.43 -29.58,32.67 -52.5,37.18c-23.4,4.6 -46.17,2.75 -67.21,-9.49c-5.4,-3.14 -10.03,-7.61 -15.27,-11.71z" fill="#2F4351" id="svg_6" opacity="1"/>
  <path d="m145.19,346.7c15.4,8.09 31.83,12.22 49.18,13c24.14,1.09 47.99,-1.48 71.26,-7.54c24.13,-6.28 47.92,-13.88 71.84,-21c28.83,-8.59 58.06,-14.82 88.3,-14.74c19.31,0.04 38.3,2.32 55.7,11.48c12.14,6.38 21.82,15.11 24.78,30.53c-11.34,-8.71 -23.54,-13.2 -36.53,-15.71c-23.03,-4.46 -46.05,-3.11 -69.04,0.4c-25.13,3.83 -49.07,12.11 -73.07,20.06c-30.13,9.98 -60.69,17.84 -92.59,19.14c-20.45,0.84 -40.63,-0.7 -59.75,-8.82c-12.83,-5.46 -23.96,-13.06 -30.21,-26.45c0.13,-0.35 0.13,-0.35 0.13,-0.35z" fill="#268C84" id="svg_5" opacity="1"/>
  <path d="m475.19,369.67c-18.16,-1.03 -36.4,-1.38 -54.18,2.61c-22.36,5.02 -44.49,11.1 -66.64,17c-29.12,7.76 -58.67,12.37 -88.81,11.65c-14.69,-0.35 -29.34,-2.44 -44.07,-3.75c18.3,-1.98 36.38,-3.3 54.25,-6.04c26.11,-3.99 50.77,-13.4 75.6,-22.03c20.99,-7.29 42.37,-12.97 64.63,-14.12c20.91,-1.09 40.62,3.76 59.06,14.39c0.16,0.3 0.16,0.29 0.16,0.29z" fill="#258D85" id="svg_4" opacity="1"/>
  <path d="m145.19,346.7c-0.2,-0.08 -0.4,-0.15 -0.61,-0.22c0.17,-0.05 0.34,-0.1 0.56,0.03c0.05,0.19 0.05,0.19 0.05,0.19z" fill="#268C84" id="svg_2" opacity="1"/>
  <path d="m475.19,369.69c0,0 0.12,-0.04 0.06,-0.03c-0.06,0.01 -0.06,0.02 -0.06,0.03z" fill="#258D85" id="svg_1" opacity="1"/>
 </g>
</svg>