<svg width="70" height="70" viewBox="0 0 70 70" fill="none" xmlns="http://www.w3.org/2000/svg">
<path d="M35.0023 10C28.2127 10 27.3606 10.0297 24.6939 10.151C22.0324 10.2729 20.2157 10.6943 18.6261 11.3125C16.9818 11.951 15.587 12.8052 14.1974 14.1953C12.8068 15.5849 11.9526 16.9797 11.312 18.6234C10.6922 20.2136 10.2703 22.0307 10.1505 24.6912C10.0313 27.3578 10 28.2104 10 35C10 41.7896 10.0302 42.6391 10.151 45.3057C10.2734 47.9672 10.6948 49.7839 11.3125 51.3734C11.9516 53.0177 12.8057 54.4125 14.1959 55.8021C15.585 57.1927 16.9798 58.049 18.623 58.6875C20.2136 59.3057 22.0309 59.7271 24.6918 59.849C27.3585 59.9703 28.2101 60 34.9992 60C41.7894 60 42.6389 59.9703 45.3056 59.849C47.9671 59.7271 49.7858 59.3057 51.3765 58.6875C53.0202 58.049 54.413 57.1927 55.8021 55.8021C57.1927 54.4125 58.0469 53.0177 58.6875 51.374C59.3021 49.7839 59.724 47.9667 59.849 45.3063C59.9687 42.6396 60 41.7896 60 35C60 28.2104 59.9687 27.3583 59.849 24.6917C59.724 22.0302 59.3021 20.2136 58.6875 18.624C58.0469 16.9797 57.1927 15.5849 55.8021 14.1953C54.4114 12.8047 53.0207 11.9505 51.3749 11.3125C49.7811 10.6943 47.9634 10.2729 45.3019 10.151C42.6352 10.0297 41.7863 10 34.9945 10H35.0023ZM32.7596 14.5052C33.4253 14.5042 34.168 14.5052 35.0023 14.5052C41.6774 14.5052 42.4686 14.5292 45.1045 14.649C47.5421 14.7604 48.865 15.1677 49.7462 15.5099C50.9129 15.963 51.7447 16.5047 52.6192 17.3797C53.4942 18.2547 54.0359 19.088 54.4901 20.2547C54.8322 21.1349 55.2401 22.4578 55.351 24.8953C55.4708 27.5307 55.4968 28.3224 55.4968 34.9943C55.4968 41.6661 55.4708 42.4578 55.351 45.0932C55.2395 47.5307 54.8322 48.8537 54.4901 49.7339C54.0369 50.9005 53.4942 51.7313 52.6192 52.6057C51.7442 53.4807 50.9134 54.0224 49.7462 54.4755C48.866 54.8193 47.5421 55.2255 45.1045 55.337C42.4691 55.4568 41.6774 55.4828 35.0023 55.4828C28.3268 55.4828 27.5356 55.4568 24.9002 55.337C22.4626 55.2245 21.1397 54.8172 20.2579 54.475C19.0912 54.0219 18.2579 53.4802 17.3829 52.6052C16.5079 51.7302 15.9662 50.899 15.512 49.7318C15.1698 48.8516 14.762 47.5286 14.6511 45.0912C14.5313 42.4557 14.5073 41.6641 14.5073 34.988C14.5073 28.312 14.5313 27.5245 14.6511 24.8891C14.7626 22.4516 15.1698 21.1287 15.512 20.2474C15.9652 19.0807 16.5079 18.2474 17.3829 17.3724C18.2579 16.4974 19.0912 15.9557 20.2579 15.5016C21.1392 15.1578 22.4626 14.7516 24.9002 14.6396C27.2064 14.5354 28.1002 14.5042 32.7596 14.4989L32.7596 14.5052ZM48.3473 18.6562C46.691 18.6562 45.3472 19.9984 45.3472 21.6552C45.3472 23.3115 46.691 24.6552 48.3473 24.6552C50.0035 24.6552 51.3473 23.3115 51.3473 21.6552C51.3473 19.999 50.0035 18.6552 48.3473 18.6552L48.3473 18.6562ZM35.0023 22.1614C27.9122 22.1614 22.1637 27.9099 22.1637 35C22.1637 42.0901 27.9122 47.8359 35.0023 47.8359C42.0925 47.8359 47.8389 42.0901 47.8389 35C47.8389 27.9099 42.092 22.1614 35.0018 22.1614H35.0023ZM35.0023 26.6667C39.6045 26.6667 43.3358 30.3974 43.3358 35C43.3358 39.6021 39.6045 43.3333 35.0023 43.3333C30.3997 43.3333 26.6689 39.6021 26.6689 35C26.6689 30.3974 30.3997 26.6667 35.0023 26.6667Z" fill="black"/>
</svg>
