<svg width="70" height="70" viewBox="0 0 70 70" fill="none" xmlns="http://www.w3.org/2000/svg">
<path fill-rule="evenodd" clip-rule="evenodd" d="M60 60H49.7266V42.502C49.7266 37.7046 47.9036 35.0236 44.1064 35.0236C39.9756 35.0236 37.8174 37.8136 37.8174 42.502V60H27.9167V26.6667H37.8174V31.1567C37.8174 31.1567 40.7943 25.6483 47.8678 25.6483C54.9382 25.6483 60 29.9658 60 38.8954V60ZM16.1051 22.3019C12.7327 22.3019 10 19.5477 10 16.151C10 12.7542 12.7327 10 16.1051 10C19.4775 10 22.2087 12.7542 22.2087 16.151C22.2087 19.5477 19.4775 22.3019 16.1051 22.3019ZM10.9928 60H21.3167V26.6667H10.9928V60Z" fill="black"/>
</svg>
