<svg width="70" height="70" viewBox="0 0 70 70" fill="none" xmlns="http://www.w3.org/2000/svg">
<path d="M35 17.499C35.043 17.499 50.6419 17.5009 54.5342 18.5449C56.6866 19.1212 58.378 20.8124 58.9541 22.9648C59.9954 26.8626 60 35 60 35C60 35.0418 59.9969 43.1474 58.9541 47.0352C58.3779 49.1875 56.6865 50.8789 54.5342 51.4551C50.6419 52.4991 35.043 52.501 35 52.501C35 52.501 19.3636 52.5006 15.4658 51.4551C13.3134 50.879 11.6222 49.1875 11.0459 47.0352C10.0032 43.1474 10 35.0418 10 35C10 35 10.0005 26.8626 11.0459 22.9648C11.6222 20.8124 13.3134 19.1212 15.4658 18.5449C19.3636 17.4995 35 17.499 35 17.499ZM29.9951 42.5L42.9854 35.001L29.9951 27.501V42.5Z" fill="black"/>
</svg>
